<svg width="1461" height="235" viewBox="0 0 1461 235" fill="none" xmlns="http://www.w3.org/2000/svg">
<path d="M241.104 158.676V77.3243H276.372C283.666 77.3243 289.952 78.5252 295.228 80.927C300.505 83.2513 304.579 86.6216 307.45 91.0378C310.321 95.4541 311.757 100.722 311.757 106.843C311.757 112.886 310.321 118.116 307.45 122.532C304.579 126.949 300.505 130.358 295.228 132.759C289.952 135.084 283.666 136.246 276.372 136.246H251.58L259.96 127.762V158.676H241.104ZM259.96 129.854L251.58 120.905H275.324C281.144 120.905 285.49 119.666 288.361 117.186C291.232 114.707 292.668 111.259 292.668 106.843C292.668 102.35 291.232 98.863 288.361 96.3838C285.49 93.9045 281.144 92.6649 275.324 92.6649H251.58L259.96 83.7162V129.854ZM330.457 158.676V77.3243H365.725C373.019 77.3243 379.305 78.5252 384.581 80.927C389.857 83.2513 393.931 86.6216 396.802 91.0378C399.674 95.4541 401.109 100.722 401.109 106.843C401.109 112.886 399.674 118.116 396.802 122.532C393.931 126.871 389.857 130.203 384.581 132.527C379.305 134.851 373.019 136.014 365.725 136.014H340.932L349.313 127.762V158.676H330.457ZM382.253 158.676L361.883 129.157H382.02L402.622 158.676H382.253ZM349.313 129.854L340.932 121.022H364.677C370.497 121.022 374.842 119.782 377.713 117.303C380.585 114.746 382.02 111.259 382.02 106.843C382.02 102.35 380.585 98.863 377.713 96.3838C374.842 93.9045 370.497 92.6649 364.677 92.6649H340.932L349.313 83.7162V129.854ZM460.861 160.07C454.421 160.07 448.446 159.024 442.936 156.932C437.505 154.841 432.771 151.896 428.736 148.1C424.778 144.304 421.675 139.849 419.424 134.735C417.252 129.622 416.165 124.043 416.165 118C416.165 111.957 417.252 106.378 419.424 101.265C421.675 96.1513 424.818 91.6964 428.852 87.9C432.888 84.1036 437.622 81.1594 443.053 79.0676C448.485 76.9757 454.383 75.9297 460.745 75.9297C467.186 75.9297 473.083 76.9757 478.437 79.0676C483.869 81.1594 488.564 84.1036 492.521 87.9C496.557 91.6964 499.699 96.1513 501.949 101.265C504.2 106.301 505.325 111.879 505.325 118C505.325 124.043 504.2 129.66 501.949 134.851C499.699 139.965 496.557 144.42 492.521 148.216C488.564 151.935 483.869 154.841 478.437 156.932C473.083 159.024 467.225 160.07 460.861 160.07ZM460.745 144.032C464.393 144.032 467.729 143.413 470.755 142.173C473.859 140.933 476.575 139.151 478.903 136.827C481.231 134.503 483.016 131.752 484.257 128.576C485.577 125.399 486.236 121.874 486.236 118C486.236 114.126 485.577 110.601 484.257 107.424C483.016 104.248 481.231 101.497 478.903 99.173C476.653 96.8486 473.976 95.0667 470.871 93.827C467.768 92.5873 464.393 91.9676 460.745 91.9676C457.098 91.9676 453.723 92.5873 450.618 93.827C447.592 95.0667 444.915 96.8486 442.587 99.173C440.259 101.497 438.436 104.248 437.116 107.424C435.876 110.601 435.254 114.126 435.254 118C435.254 121.796 435.876 125.322 437.116 128.576C438.436 131.752 440.221 134.503 442.471 136.827C444.799 139.151 447.515 140.933 450.618 142.173C453.723 143.413 457.098 144.032 460.745 144.032ZM524.734 158.676V77.3243H540.331L575.017 134.735H566.753L600.857 77.3243H616.338L616.571 158.676H598.879L598.762 104.403H602.021L574.784 150.076H566.288L538.469 104.403H542.426V158.676H524.734ZM641.14 158.676V77.3243H659.996V158.676H641.14ZM749.543 160.07C743.025 160.07 736.778 159.218 730.804 157.514C724.829 155.732 720.017 153.446 716.37 150.657L722.772 136.478C726.264 138.958 730.376 141.011 735.11 142.638C739.921 144.187 744.771 144.962 749.66 144.962C753.385 144.962 756.372 144.614 758.622 143.916C760.95 143.141 762.658 142.095 763.744 140.778C764.83 139.461 765.373 137.95 765.373 136.246C765.373 134.077 764.52 132.372 762.813 131.132C761.105 129.815 758.855 128.769 756.062 127.995C753.268 127.142 750.164 126.368 746.75 125.67C743.413 124.895 740.037 123.966 736.623 122.881C733.286 121.796 730.222 120.402 727.428 118.697C724.635 116.993 722.345 114.746 720.561 111.957C718.853 109.168 718 105.604 718 101.265C718 96.6162 719.242 92.3937 721.725 88.5973C724.285 84.7234 728.088 81.6631 733.132 79.4162C738.253 77.0919 744.655 75.9297 752.337 75.9297C757.458 75.9297 762.502 76.5495 767.469 77.7892C772.435 78.9513 776.819 80.7333 780.621 83.1351L774.802 97.4297C770.999 95.2603 767.197 93.6721 763.395 92.6649C759.592 91.5802 755.867 91.0378 752.221 91.0378C748.574 91.0378 745.586 91.464 743.258 92.3162C740.93 93.1684 739.262 94.2919 738.253 95.6865C737.244 97.0036 736.74 98.5532 736.74 100.335C736.74 102.427 737.593 104.132 739.301 105.449C741.008 106.688 743.258 107.695 746.052 108.47C748.845 109.245 751.91 110.02 755.247 110.795C758.661 111.569 762.036 112.46 765.373 113.468C768.787 114.475 771.892 115.831 774.685 117.535C777.479 119.24 779.729 121.486 781.436 124.276C783.22 127.065 784.113 130.59 784.113 134.851C784.113 139.422 782.833 143.606 780.272 147.403C777.711 151.199 773.87 154.259 768.749 156.584C763.705 158.908 757.304 160.07 749.543 160.07ZM841.81 160.07C835.37 160.07 829.395 159.024 823.885 156.932C818.454 154.841 813.72 151.896 809.684 148.1C805.727 144.304 802.624 139.849 800.373 134.735C798.201 129.622 797.114 124.043 797.114 118C797.114 111.957 798.201 106.378 800.373 101.265C802.624 96.1513 805.766 91.6964 809.801 87.9C813.836 84.1036 818.57 81.1594 824.001 79.0676C829.433 76.9757 835.331 75.9297 841.693 75.9297C848.135 75.9297 854.031 76.9757 859.386 79.0676C864.818 81.1594 869.512 84.1036 873.47 87.9C877.505 91.6964 880.648 96.1513 882.898 101.265C885.149 106.301 886.273 111.879 886.273 118C886.273 124.043 885.149 129.66 882.898 134.851C880.648 139.965 877.505 144.42 873.47 148.216C869.512 151.935 864.818 154.841 859.386 156.932C854.031 159.024 848.173 160.07 841.81 160.07ZM841.693 144.032C845.341 144.032 848.677 143.413 851.704 142.173C854.808 140.933 857.523 139.151 859.851 136.827C862.179 134.503 863.965 131.752 865.206 128.576C866.525 125.399 867.184 121.874 867.184 118C867.184 114.126 866.525 110.601 865.206 107.424C863.965 104.248 862.179 101.497 859.851 99.173C857.601 96.8486 854.924 95.0667 851.82 93.827C848.717 92.5873 845.341 91.9676 841.693 91.9676C838.047 91.9676 834.671 92.5873 831.567 93.827C828.541 95.0667 825.864 96.8486 823.536 99.173C821.208 101.497 819.385 104.248 818.065 107.424C816.824 110.601 816.203 114.126 816.203 118C816.203 121.796 816.824 125.322 818.065 128.576C819.385 131.752 821.169 134.503 823.419 136.827C825.747 139.151 828.464 140.933 831.567 142.173C834.671 143.413 838.047 144.032 841.693 144.032ZM905.682 158.676V77.3243H924.539V143.335H965.394V158.676H905.682ZM1016.46 160.07C1004.9 160.07 995.856 156.855 989.338 150.424C982.82 143.994 979.561 134.813 979.561 122.881V77.3243H998.417V122.184C998.417 129.932 1000.01 135.51 1003.19 138.919C1006.37 142.328 1010.83 144.032 1016.57 144.032C1022.32 144.032 1026.78 142.328 1029.96 138.919C1033.14 135.51 1034.73 129.932 1034.73 122.184V77.3243H1053.36V122.881C1053.36 134.813 1050.1 143.994 1043.58 150.424C1037.06 156.855 1028.02 160.07 1016.46 160.07ZM1092.74 158.676V92.6649H1066.67V77.3243H1137.67V92.6649H1111.6V158.676H1092.74ZM1153.05 158.676V77.3243H1171.91V158.676H1153.05ZM1236.06 160.07C1229.62 160.07 1223.64 159.024 1218.13 156.932C1212.7 154.841 1207.97 151.896 1203.93 148.1C1199.97 144.304 1196.87 139.849 1194.62 134.735C1192.45 129.622 1191.36 124.043 1191.36 118C1191.36 111.957 1192.45 106.378 1194.62 101.265C1196.87 96.1513 1200.01 91.6964 1204.05 87.9C1208.08 84.1036 1212.82 81.1594 1218.25 79.0676C1223.68 76.9757 1229.58 75.9297 1235.94 75.9297C1242.38 75.9297 1248.28 76.9757 1253.63 79.0676C1259.07 81.1594 1263.76 84.1036 1267.72 87.9C1271.75 91.6964 1274.9 96.1513 1277.15 101.265C1279.4 106.301 1280.52 111.879 1280.52 118C1280.52 124.043 1279.4 129.66 1277.15 134.851C1274.9 139.965 1271.75 144.42 1267.72 148.216C1263.76 151.935 1259.07 154.841 1253.63 156.932C1248.28 159.024 1242.42 160.07 1236.06 160.07ZM1235.94 144.032C1239.59 144.032 1242.93 143.413 1245.95 142.173C1249.06 140.933 1251.77 139.151 1254.1 136.827C1256.43 134.503 1258.21 131.752 1259.45 128.576C1260.77 125.399 1261.43 121.874 1261.43 118C1261.43 114.126 1260.77 110.601 1259.45 107.424C1258.21 104.248 1256.43 101.497 1254.1 99.173C1251.85 96.8486 1249.17 95.0667 1246.07 93.827C1242.96 92.5873 1239.59 91.9676 1235.94 91.9676C1232.29 91.9676 1228.92 92.5873 1225.81 93.827C1222.79 95.0667 1220.11 96.8486 1217.78 99.173C1215.46 101.497 1213.63 104.248 1212.31 107.424C1211.07 110.601 1210.45 114.126 1210.45 118C1210.45 121.796 1211.07 125.322 1212.31 128.576C1213.63 131.752 1215.42 134.503 1217.67 136.827C1220 139.151 1222.71 140.933 1225.81 142.173C1228.92 143.413 1232.29 144.032 1235.94 144.032ZM1299.93 158.676V77.3243H1315.53L1363.6 135.897H1356.03V77.3243H1374.66V158.676H1359.18L1310.99 100.103H1318.55V158.676H1299.93ZM1425.94 160.07C1419.42 160.07 1413.18 159.218 1407.2 157.514C1401.23 155.732 1396.42 153.446 1392.77 150.657L1399.17 136.478C1402.66 138.958 1406.78 141.011 1411.51 142.638C1416.33 144.187 1421.17 144.962 1426.06 144.962C1429.78 144.962 1432.77 144.614 1435.02 143.916C1437.35 143.141 1439.06 142.095 1440.14 140.778C1441.24 139.461 1441.77 137.95 1441.77 136.246C1441.77 134.077 1440.92 132.372 1439.21 131.132C1437.51 129.815 1435.25 128.769 1432.46 127.995C1429.67 127.142 1426.57 126.368 1423.15 125.67C1419.82 124.895 1416.44 123.966 1413.02 122.881C1409.69 121.796 1406.62 120.402 1403.83 118.697C1401.03 116.993 1398.75 114.746 1396.96 111.957C1395.25 109.168 1394.4 105.604 1394.4 101.265C1394.4 96.6162 1395.64 92.3937 1398.12 88.5973C1400.69 84.7234 1404.49 81.6631 1409.53 79.4162C1414.65 77.0919 1421.05 75.9297 1428.73 75.9297C1433.86 75.9297 1438.91 76.5495 1443.87 77.7892C1448.84 78.9513 1453.22 80.7333 1457.02 83.1351L1451.2 97.4297C1447.4 95.2603 1443.6 93.6721 1439.79 92.6649C1436 91.5802 1432.27 91.0378 1428.62 91.0378C1424.98 91.0378 1421.98 91.464 1419.66 92.3162C1417.33 93.1684 1415.66 94.2919 1414.65 95.6865C1413.65 97.0036 1413.14 98.5532 1413.14 100.335C1413.14 102.427 1414 104.132 1415.7 105.449C1417.41 106.688 1419.66 107.695 1422.45 108.47C1425.24 109.245 1428.32 110.02 1431.64 110.795C1435.07 111.569 1438.44 112.46 1441.77 113.468C1445.19 114.475 1448.29 115.831 1451.08 117.535C1453.88 119.24 1456.13 121.486 1457.83 124.276C1459.63 127.065 1460.51 130.59 1460.51 134.851C1460.51 139.422 1459.23 143.606 1456.67 147.403C1454.11 151.199 1450.27 154.259 1445.15 156.584C1440.11 158.908 1433.71 160.07 1425.94 160.07Z" fill="white"/>
<path fill-rule="evenodd" clip-rule="evenodd" d="M0 27.5812V55.161L15.335 68.1832C23.7689 75.344 31.9311 82.294 33.4717 83.6279C35.0123 84.9604 44.4355 92.953 54.41 101.388C64.3858 109.824 72.5467 117.12 72.5467 117.604C72.5467 118.088 67.3536 122.826 61.0051 128.135C54.658 133.446 47.0577 139.885 44.1163 142.448C36.8893 148.743 33.539 151.596 15.4986 166.818L0 179.894V207.448V235L6.92491 229.281C10.7329 226.136 14.4434 222.914 15.1688 222.121C15.8943 221.329 26.2817 212.439 38.2519 202.367C50.2221 192.294 60.3127 183.706 60.6754 183.282C61.5328 182.279 78.572 167.634 90.3536 157.775C105.201 145.35 116.41 135.52 120.315 131.499C125.176 126.494 127.143 118.987 125.342 112.306C123.787 106.534 116.327 99.3441 79.8013 68.4125C68.1939 58.5813 51.2773 44.1396 42.209 36.3171C33.1406 28.4959 19.9332 17.1239 12.8605 11.0478L0 0V27.5812Z" fill="#007EA7"/>
<line x1="178.5" y1="193" x2="178.5" y2="43" stroke="white" stroke-width="9"/>
</svg>
